<?xml version="1.0" encoding="UTF-8"?>
<svg xmlns="http://www.w3.org/2000/svg" xmlns:xlink="http://www.w3.org/1999/xlink" width="20pt" height="20pt" viewBox="0 0 20 20" version="1.1">
<g id="surface1">
<path style=" stroke:none;fill-rule:nonzero;fill:rgb(0%,0%,0%);fill-opacity:1;" d="M 19.6875 10 C 19.6875 4.648438 15.351562 0.3125 10 0.3125 C 4.648438 0.3125 0.3125 4.648438 0.3125 10 C 0.3125 14.835938 3.855469 18.84375 8.484375 19.570312 L 8.484375 12.800781 L 6.023438 12.800781 L 6.023438 10 L 8.484375 10 L 8.484375 7.867188 C 8.484375 5.4375 9.929688 4.097656 12.144531 4.097656 C 13.207031 4.097656 14.3125 4.285156 14.3125 4.285156 L 14.3125 6.667969 L 13.09375 6.667969 C 11.890625 6.667969 11.515625 7.414062 11.515625 8.183594 L 11.515625 10 L 14.199219 10 L 13.769531 12.800781 L 11.515625 12.800781 L 11.515625 19.570312 C 16.144531 18.84375 19.6875 14.835938 19.6875 10 Z M 19.6875 10 "/>
</g>
</svg>
