<?xml version="1.0" encoding="UTF-8"?>
<svg xmlns="http://www.w3.org/2000/svg" xmlns:xlink="http://www.w3.org/1999/xlink" width="19pt" height="19pt" viewBox="0 0 19 19" version="1.1">
<g id="surface1">
<path style=" stroke:none;fill-rule:nonzero;fill:rgb(0%,0%,0%);fill-opacity:1;" d="M 19 9.5 C 19 14.585938 14.746094 18.703125 9.5 18.703125 C 8.519531 18.703125 7.578125 18.558594 6.6875 18.292969 C 7.074219 17.679688 7.652344 16.675781 7.867188 15.878906 C 7.984375 15.449219 8.457031 13.691406 8.457031 13.691406 C 8.769531 14.261719 9.671875 14.746094 10.632812 14.746094 C 13.5 14.746094 15.5625 12.195312 15.5625 9.019531 C 15.5625 5.980469 13 3.707031 9.707031 3.707031 C 5.609375 3.707031 3.429688 6.371094 3.429688 9.277344 C 3.429688 10.628906 4.171875 12.308594 5.355469 12.84375 C 5.535156 12.925781 5.632812 12.886719 5.671875 12.722656 C 5.703125 12.59375 5.863281 11.96875 5.9375 11.679688 C 5.960938 11.585938 5.949219 11.503906 5.871094 11.414062 C 5.484375 10.949219 5.171875 10.105469 5.171875 9.3125 C 5.171875 7.285156 6.757812 5.320312 9.460938 5.320312 C 11.792969 5.320312 13.429688 6.863281 13.429688 9.066406 C 13.429688 11.554688 12.132812 13.28125 10.441406 13.28125 C 9.511719 13.28125 8.808594 12.535156 9.035156 11.617188 C 9.304688 10.523438 9.820312 9.34375 9.820312 8.554688 C 9.820312 7.847656 9.429688 7.257812 8.617188 7.257812 C 7.664062 7.257812 6.898438 8.210938 6.898438 9.492188 C 6.898438 10.308594 7.183594 10.859375 7.183594 10.859375 C 7.183594 10.859375 6.242188 14.710938 6.070312 15.429688 C 5.878906 16.222656 5.957031 17.34375 6.035156 18.070312 C 2.503906 16.734375 0 13.398438 0 9.5 C 0 4.414062 4.253906 0.296875 9.5 0.296875 C 14.746094 0.296875 19 4.414062 19 9.5 Z M 19 9.5 "/>
</g>
</svg>
