<?xml version="1.0" encoding="UTF-8"?>
<svg xmlns="http://www.w3.org/2000/svg" xmlns:xlink="http://www.w3.org/1999/xlink" width="18pt" height="20pt" viewBox="0 0 18 20" version="1.1">
<g id="surface1">
<path style=" stroke:none;fill-rule:nonzero;fill:rgb(0%,0%,0%);fill-opacity:1;" d="M 16.070312 1.25 L 1.929688 1.25 C 0.863281 1.25 0 2.089844 0 3.125 L 0 16.875 C 0 17.910156 0.863281 18.75 1.929688 18.75 L 16.070312 18.75 C 17.136719 18.75 18 17.910156 18 16.875 L 18 3.125 C 18 2.089844 17.136719 1.25 16.070312 1.25 Z M 14.105469 7.453125 C 14.113281 7.5625 14.113281 7.675781 14.113281 7.785156 C 14.113281 11.171875 11.464844 15.074219 6.617188 15.074219 C 5.121094 15.074219 3.738281 14.652344 2.570312 13.925781 C 2.785156 13.949219 2.988281 13.957031 3.207031 13.957031 C 4.441406 13.957031 5.574219 13.550781 6.476562 12.863281 C 5.320312 12.839844 4.347656 12.101562 4.015625 11.085938 C 4.417969 11.144531 4.785156 11.144531 5.203125 11.039062 C 3.996094 10.800781 3.09375 9.769531 3.09375 8.523438 L 3.09375 8.492188 C 3.441406 8.683594 3.851562 8.800781 4.28125 8.816406 C 3.550781 8.339844 3.109375 7.539062 3.109375 6.683594 C 3.109375 6.207031 3.238281 5.769531 3.46875 5.390625 C 4.765625 6.945312 6.714844 7.960938 8.898438 8.070312 C 8.527344 6.332031 9.863281 4.921875 11.472656 4.921875 C 12.230469 4.921875 12.914062 5.230469 13.394531 5.730469 C 13.988281 5.621094 14.5625 5.40625 15.066406 5.113281 C 14.871094 5.707031 14.457031 6.207031 13.910156 6.523438 C 14.441406 6.46875 14.953125 6.324219 15.429688 6.125 C 15.070312 6.636719 14.621094 7.089844 14.105469 7.453125 Z M 14.105469 7.453125 "/>
</g>
</svg>
